<?xml version="1.0" standalone="no"?>
<!DOCTYPE svg PUBLIC "-//W3C//DTD SVG 20010904//EN"
 "http://www.w3.org/TR/2001/REC-SVG-20010904/DTD/svg10.dtd">
<svg version="1.0" xmlns="http://www.w3.org/2000/svg"
 width="960.000000pt" height="960.000000pt" viewBox="0 0 960.000000 960.000000"
 preserveAspectRatio="xMidYMid meet">
<metadata>
Created by potrace 1.15, written by Peter Selinger 2001-2017
</metadata>
<g transform="translate(0.000000,960.000000) scale(0.100000,-0.100000)"
fill="#000000" stroke="none">
<path d="M3771 6949 c-92 -24 -102 -32 -31 -25 40 4 47 3 25 -3 -16 -5 -24 -9
-16 -10 8 0 12 -3 9 -6 -3 -3 -29 0 -58 6 -37 8 -55 8 -63 0 -7 -7 0 -10 26
-9 21 1 40 -2 44 -5 3 -4 -20 -6 -53 -4 -57 2 -58 1 -67 -29 -8 -26 -17 -33
-80 -54 -40 -13 -85 -29 -102 -36 -16 -7 -56 -23 -88 -35 l-57 -23 20 -21 c29
-31 25 -71 -9 -106 -36 -36 -55 -36 -153 -3 l-76 25 -52 -26 c-28 -14 -80 -44
-116 -65 -35 -22 -66 -40 -69 -40 -2 0 -24 -13 -47 -29 -24 -15 -79 -52 -123
-82 -262 -174 -450 -351 -524 -493 -24 -45 -31 -71 -31 -115 l0 -56 108 0 c90
0 115 -4 160 -24 28 -13 52 -27 52 -31 0 -4 48 -7 108 -7 126 2 171 -11 386
-110 190 -87 260 -107 371 -107 50 0 108 6 130 13 22 7 128 55 235 107 246
117 266 124 376 131 90 6 93 5 260 -50 498 -163 932 -251 1484 -302 235 -22
771 -30 1020 -16 217 12 585 47 635 60 l30 7 0 165 c0 161 0 165 -29 224 -89
181 -420 391 -955 604 -172 69 -568 211 -587 211 -1 0 -4 -27 -7 -60 -16 -150
-102 -242 -256 -273 -33 -7 -70 -22 -83 -33 -83 -75 -167 -104 -295 -104 -52
0 -127 7 -168 15 l-75 16 -82 -35 c-110 -46 -156 -57 -247 -59 -143 -2 -258
44 -367 146 l-63 58 -36 -16 c-54 -22 -152 -20 -192 5 -73 44 -122 162 -130
317 -6 111 4 182 42 294 18 55 20 69 9 69 -8 0 -14 -7 -14 -15 0 -8 -4 -15
-10 -15 -5 0 -6 -7 -3 -17 4 -10 2 -14 -4 -10 -6 4 -14 1 -17 -5 -4 -7 -4 -3
-2 10 3 14 -1 22 -9 22 -7 0 -12 -8 -10 -17 1 -10 0 -12 -2 -5 -3 6 -10 12
-16 12 -6 0 -2 7 10 15 12 8 28 12 36 9 9 -3 17 3 21 18 10 39 6 44 -14 18
-10 -14 -22 -21 -26 -17 -4 4 -2 7 4 7 7 0 12 4 12 9 0 6 -17 8 -37 5 -38 -4
-37 -4 7 10 67 21 16 17 -69 -5z m-283 -389 c43 -41 31 -67 -80 -177 -57 -55
-113 -103 -125 -107 -13 -4 -35 -1 -50 6 -22 10 -29 21 -31 51 -3 33 2 43 45
86 93 93 176 161 197 161 12 0 32 -9 44 -20z m288 -45 c14 -21 15 -41 9 -123
-8 -125 -20 -166 -52 -191 -34 -27 -64 -26 -91 2 -22 23 -22 26 -10 153 11
120 13 131 39 157 36 36 82 37 105 2z m-915 -166 c18 -18 20 -29 15 -73 -3
-28 -8 -82 -12 -121 -10 -109 -37 -143 -105 -133 -39 5 -45 34 -37 167 5 92
11 127 25 146 29 39 82 46 114 14z m3746 -134 c99 -31 112 -38 123 -65 17 -42
-3 -88 -47 -106 -30 -13 -41 -12 -143 21 -60 20 -116 43 -125 51 -30 30 -10
98 35 121 34 17 33 17 157 -22z m369 -173 c6 -4 16 -17 23 -29 21 -41 -4 -76
-147 -206 -51 -46 -70 -57 -97 -57 -26 0 -39 6 -51 25 -30 45 -16 67 128 203
76 71 111 87 144 64z m-3334 -19 c11 -9 18 -30 18 -50 0 -37 -11 -50 -138
-166 -59 -54 -80 -67 -106 -67 -41 0 -56 16 -56 60 0 31 10 45 93 126 121 120
148 134 189 97z m1365 -25 c11 -13 24 -34 28 -48 4 -14 21 -53 36 -88 37 -80
36 -103 -2 -141 -56 -57 -87 -39 -145 85 -52 112 -55 144 -15 185 35 35 70 37
98 7z m538 8 c21 -15 22 -59 7 -209 -8 -72 -14 -91 -33 -108 -34 -29 -65 -34
-95 -14 l-27 17 7 120 c4 66 12 132 17 147 20 53 83 77 124 47z m-867 -22 c23
-16 30 -61 13 -92 -5 -10 -36 -35 -68 -57 -32 -22 -81 -57 -109 -77 -55 -41
-96 -48 -126 -21 -21 19 -23 61 -4 88 8 11 47 43 86 70 40 28 81 58 92 68 39
37 82 45 116 21z m-1470 -20 c22 -15 29 -54 16 -88 -10 -26 -230 -176 -258
-176 -53 0 -83 61 -52 106 14 20 194 152 225 166 26 11 45 9 69 -8z"/>
<path d="M5625 3652 c-44 -15 -74 -45 -89 -89 -31 -89 -104 -153 -205 -179
-35 -8 -47 -16 -49 -33 -6 -41 129 -83 202 -62 l38 10 -6 -72 c-4 -40 -23
-202 -42 -362 -61 -507 -82 -910 -53 -995 24 -68 190 -105 286 -65 46 19 54
31 42 62 -13 34 -11 284 3 507 l12 189 43 27 c56 36 169 64 221 55 49 -8 96
-36 119 -72 13 -20 18 -46 18 -103 -1 -134 -63 -278 -136 -315 -36 -19 -92
-19 -129 0 -36 18 -48 14 -83 -32 -36 -48 -43 -78 -27 -122 19 -55 48 -80 118
-101 85 -26 152 -25 236 5 158 55 296 192 357 354 18 48 20 72 17 172 -4 104
-7 120 -32 163 -32 55 -86 97 -165 127 -44 18 -84 23 -188 27 -73 2 -133 6
-133 7 0 2 46 50 103 106 305 307 378 507 236 649 -38 38 -63 54 -106 66 -119
35 -268 -5 -367 -96 l-46 -43 0 72 c0 68 -2 74 -32 101 -19 17 -51 33 -80 40
-53 11 -54 11 -83 2z m399 -254 c43 -61 -17 -350 -104 -502 -31 -55 -104 -136
-123 -136 -6 0 -7 35 -3 103 4 56 11 181 15 278 10 198 14 212 85 254 53 32
109 33 130 3z"/>
<path d="M3100 3481 c-106 -34 -181 -129 -145 -184 33 -52 67 -251 84 -507 10
-140 13 -182 27 -431 l7 -115 -100 -205 c-154 -314 -222 -415 -274 -407 -34 4
-47 53 -59 217 -12 149 -3 343 25 556 18 137 29 184 56 237 51 101 -11 188
-133 188 -62 -1 -86 -15 -94 -59 -4 -17 -10 -34 -14 -36 -5 -3 -34 2 -66 10
-68 18 -172 19 -242 4 -185 -39 -356 -287 -394 -572 -31 -235 58 -381 232
-381 75 0 110 15 176 76 43 40 120 152 145 213 12 27 14 16 20 -106 10 -200
51 -321 135 -399 61 -56 102 -72 165 -64 116 15 218 135 370 435 l64 124 5
-87 c6 -98 16 -115 74 -128 52 -12 111 6 143 44 l26 31 -6 190 c-4 105 -10
220 -13 256 -6 63 -6 66 16 72 32 8 88 -17 100 -45 16 -39 48 -167 74 -298 14
-69 32 -145 41 -170 54 -153 181 -253 283 -222 70 21 167 133 263 300 58 102
66 112 75 85 3 -10 22 -51 41 -91 63 -128 175 -206 314 -219 60 -6 120 9 215
54 155 73 355 309 495 585 34 67 35 74 12 80 -36 8 -53 -5 -89 -70 -123 -220
-284 -424 -381 -486 -55 -34 -115 -35 -147 -3 -44 44 -79 189 -89 372 l-5 81
72 32 c90 41 174 111 217 182 30 48 34 62 34 126 0 64 -3 77 -30 115 -16 23
-50 53 -75 67 -41 21 -54 23 -135 19 -103 -5 -137 -17 -219 -78 -135 -102
-234 -301 -252 -509 -6 -68 -13 -88 -80 -218 -114 -220 -194 -332 -236 -332
-29 0 -44 48 -88 268 -30 151 -49 222 -74 277 -35 77 -87 135 -138 156 -34 14
-35 24 -5 40 12 7 51 36 87 64 145 115 239 241 240 319 0 52 -36 111 -84 137
-41 21 -46 22 -82 8 -28 -11 -38 -21 -37 -35 6 -51 -75 -207 -190 -364 -60
-82 -136 -162 -148 -154 -5 3 -9 38 -9 77 -1 40 -11 242 -24 450 -22 372 -23
379 -47 402 -26 27 -89 39 -129 26z m1634 -684 c9 -7 20 -31 23 -53 7 -58 -27
-132 -88 -189 -45 -42 -115 -82 -126 -72 -8 9 35 194 57 241 33 70 93 103 134
73z m-2280 -145 c7 -12 -83 -275 -133 -390 -49 -114 -105 -208 -137 -229 -57
-37 -104 19 -104 124 0 190 136 442 262 486 48 17 104 21 112 9z"/>
<path d="M1130 3408 c-249 -26 -479 -200 -596 -452 -97 -211 -108 -485 -29
-723 38 -114 127 -294 179 -361 101 -132 244 -226 384 -253 165 -31 363 36
502 171 104 101 160 219 131 273 -36 67 -106 52 -126 -25 -21 -85 -87 -156
-166 -178 -180 -52 -403 141 -498 430 -85 262 -57 630 68 877 16 32 52 80 80
106 49 46 53 48 103 45 47 -3 55 -7 75 -37 17 -26 23 -48 23 -92 0 -58 -24
-139 -41 -139 -17 0 13 -47 41 -63 35 -21 102 -22 144 -2 63 30 95 161 61 250
-48 127 -171 190 -335 173z"/>
<path d="M6960 2900 c-106 -34 -198 -100 -266 -192 -83 -113 -114 -214 -114
-374 0 -336 203 -587 475 -587 146 0 275 101 368 291 28 56 34 62 62 62 44 0
129 25 194 56 59 29 176 137 166 153 -7 12 41 92 111 186 77 104 115 131 134
96 5 -11 17 -79 25 -153 33 -289 47 -402 51 -413 6 -15 -154 -168 -228 -219
-31 -21 -71 -41 -90 -45 -28 -6 -33 -12 -36 -37 -4 -43 36 -84 82 -84 40 0 91
36 217 152 46 43 86 75 89 70 4 -4 15 -29 25 -57 46 -129 107 -201 195 -230
88 -29 190 -2 327 87 97 63 273 240 377 377 72 97 77 106 60 118 -37 27 -57
14 -134 -83 -105 -133 -273 -294 -343 -328 -64 -32 -108 -29 -132 7 -21 34
-103 313 -109 374 0 6 73 87 164 180 91 93 192 197 225 231 l60 63 -24 20
c-15 12 -38 19 -69 19 l-45 0 -177 -182 -177 -181 -23 69 c-37 114 -116 266
-161 311 -92 93 -158 80 -282 -53 -78 -85 -198 -256 -203 -290 -1 -8 -13 -23
-26 -34 -38 -33 -162 -91 -206 -97 l-41 -5 17 58 c11 42 16 102 16 204 1 175
-14 229 -84 301 -54 56 -105 74 -186 63 -51 -6 -54 -5 -54 16 0 12 -15 37 -34
56 -32 32 -37 34 -102 33 -38 0 -80 -4 -94 -9z m183 -116 c3 -3 -11 -20 -30
-37 -52 -45 -73 -98 -73 -182 0 -134 54 -268 143 -359 l49 -49 -27 -86 c-50
-159 -97 -225 -160 -225 -77 0 -153 152 -190 378 -18 112 -18 198 -1 296 28
153 82 229 186 261 31 9 95 11 103 3z m124 -111 c17 -59 2 -370 -17 -358 -25
15 -44 263 -27 348 9 44 33 49 44 10z"/>
</g>
</svg>
